<svg xmlns="http://www.w3.org/2000/svg" viewBox="0 0 128 128">
  <defs>
    <linearGradient id="g" x1="18" y1="15" x2="109" y2="112" gradientUnits="userSpaceOnUse">
      <stop stop-color="#8B5CF6"/>
      <stop offset="1" stop-color="#2DD4BF"/>
    </linearGradient>
    <linearGradient id="bg" x1="18" y1="8" x2="110" y2="122" gradientUnits="userSpaceOnUse">
      <stop stop-color="#121A2A"/>
      <stop offset="1" stop-color="#070B12"/>
    </linearGradient>
  </defs>
  <rect x="6" y="6" width="116" height="116" rx="30" fill="url(#bg)" stroke="#33435E" stroke-width="4"/>
  <path d="M31 37c11-7 22-7 33 0v54c-11-7-22-7-33 0V37Z" fill="none" stroke="#EEF2FF" stroke-width="5" stroke-linejoin="round"/>
  <path d="M97 37c-11-7-22-7-33 0v54c11-7 22-7 33 0V37Z" fill="none" stroke="#EEF2FF" stroke-width="5" stroke-linejoin="round"/>
  <path d="M64 37v54" stroke="url(#g)" stroke-width="5" stroke-linecap="round"/>
  <circle cx="64" cy="64" r="8" fill="#071019" stroke="url(#g)" stroke-width="5"/>
  <circle cx="64" cy="64" r="2.8" fill="#EFFFFB"/>
  <path d="M25 28h12M91 100h12" stroke="url(#g)" stroke-width="4" stroke-linecap="round"/>
</svg>